<?xml version="1.0" standalone="no"?><!DOCTYPE svg PUBLIC "-//W3C//DTD SVG 1.1//EN" "http://www.w3.org/Graphics/SVG/1.1/DTD/svg11.dtd"><svg t="1555386987363" class="icon" style="" viewBox="0 0 1024 1024" version="1.1" xmlns="http://www.w3.org/2000/svg" p-id="7379" xmlns:xlink="http://www.w3.org/1999/xlink" width="200" height="200"><defs><style type="text/css"></style></defs><path d="M512 598.016q34.005333 0 59.989333-25.984t25.984-59.989333-25.984-59.989333-59.989333-25.984-59.989333 25.984-25.984 59.989333 25.984 59.989333 59.989333 25.984zM512 342.016q70.016 0 120.021333 50.005333t50.005333 120.021333-50.005333 120.021333-120.021333 50.005333-120.021333-50.005333-50.005333-120.021333 50.005333-120.021333 120.021333-50.005333zM809.984 809.984l0-169.984 86.016 0 0 169.984q0 34.005333-25.984 59.989333t-59.989333 25.984l-169.984 0 0-86.016 169.984 0zM809.984 128q34.005333 0 59.989333 25.984t25.984 59.989333l0 169.984-86.016 0 0-169.984-169.984 0 0-86.016 169.984 0zM214.016 214.016l0 169.984-86.016 0 0-169.984q0-34.005333 25.984-59.989333t59.989333-25.984l169.984 0 0 86.016-169.984 0zM214.016 640l0 169.984 169.984 0 0 86.016-169.984 0q-34.005333 0-59.989333-25.984t-25.984-59.989333l0-169.984 86.016 0z" p-id="7380"></path></svg>