<?xml version="1.0" standalone="no"?><!DOCTYPE svg PUBLIC "-//W3C//DTD SVG 1.1//EN" "http://www.w3.org/Graphics/SVG/1.1/DTD/svg11.dtd"><svg t="1556172159990" class="icon" style="" viewBox="0 0 1024 1024" version="1.1" xmlns="http://www.w3.org/2000/svg" p-id="10430" xmlns:xlink="http://www.w3.org/1999/xlink" width="200" height="200"><defs><style type="text/css"></style></defs><path d="M309.527273 705.163636l-114.036364 121.018182-65.163636-69.818182c-9.309091-9.309091-23.272727-9.309091-32.581818 0s-9.309091 25.6 0 34.909091l81.454545 86.109091c6.981818 4.654545 11.636364 6.981818 18.618182 6.981818s11.636364-2.327273 16.290909-6.981818l130.327273-137.309091c9.309091-9.309091 9.309091-25.6 0-34.909091-11.636364-9.309091-25.6-9.309091-34.909091 0zM209.454545 628.363636c65.163636 0 116.363636-51.2 116.363637-116.363636s-51.2-116.363636-116.363637-116.363636-116.363636 51.2-116.363636 116.363636 51.2 116.363636 116.363636 116.363636z m0-186.181818c39.563636 0 69.818182 30.254545 69.818182 69.818182s-30.254545 69.818182-69.818182 69.818182-69.818182-30.254545-69.818181-69.818182 30.254545-69.818182 69.818181-69.818182z m100.072728-295.563636l-114.036364 121.018182-65.163636-69.818182c-9.309091-9.309091-23.272727-9.309091-32.581818 0s-9.309091 25.6 0 34.909091l81.454545 86.109091c6.981818 4.654545 11.636364 6.981818 18.618182 6.981818s11.636364-2.327273 16.290909-6.981818l130.327273-137.309091c9.309091-9.309091 9.309091-25.6 0-34.909091-11.636364-9.309091-25.6-9.309091-34.909091 0zM907.636364 488.727273H535.272727c-13.963636 0-23.272727 9.309091-23.272727 23.272727s9.309091 23.272727 23.272727 23.272727h372.363637c13.963636 0 23.272727-9.309091 23.272727-23.272727s-9.309091-23.272727-23.272727-23.272727z m0 279.272727H535.272727c-13.963636 0-23.272727 9.309091-23.272727 23.272727s9.309091 23.272727 23.272727 23.272728h372.363637c13.963636 0 23.272727-9.309091 23.272727-23.272728s-9.309091-23.272727-23.272727-23.272727zM535.272727 256h372.363637c13.963636 0 23.272727-9.309091 23.272727-23.272727s-9.309091-23.272727-23.272727-23.272728H535.272727c-13.963636 0-23.272727 9.309091-23.272727 23.272728s9.309091 23.272727 23.272727 23.272727z" p-id="10431" fill="#515151"></path></svg>